<?xml version="1.0" encoding="utf-8"?>
<!-- Generator: Adobe Illustrator 16.0.4, SVG Export Plug-In . SVG Version: 6.00 Build 0)  -->
<!DOCTYPE svg PUBLIC "-//W3C//DTD SVG 1.1//EN" "http://www.w3.org/Graphics/SVG/1.1/DTD/svg11.dtd">
<svg version="1.1" id="Map_Marker-Final" xmlns="http://www.w3.org/2000/svg" xmlns:xlink="http://www.w3.org/1999/xlink" x="0px"
	 y="0px" width="40px" height="60px" viewBox="-5 -7.5 40 60" enable-background="new -5 -7.5 40 60" xml:space="preserve">
<g>
	<g>
		<path fill="#445A48" d="M-5,12.5c0,15,20,40,20,40v-60C3.956-7.5-5,1.455-5,12.5z"/>
	</g>
	<g>
		<path fill="#8F9C91" d="M35,12.5c0,15-20,40-20,40v-60C26.047-7.5,35,1.455,35,12.5z"/>
	</g>
	<g>
		<path fill="#FFFFFF" d="M20.87,4.036c-1.374-0.858-2.671-1.194-3.97-2.052c-0.807-0.546-1.923-1.845-2.861-2.96
			c-0.178,1.792-0.725,2.518-1.346,3.039c-1.326,1.038-2.156,1.35-3.3,1.973c-0.959,0.492-6.18,3.611-6.18,10.31
			c0,6.7,5.635,11.633,11.895,11.633c6.258,0,11.686-4.545,11.686-11.426C26.794,7.669,21.702,4.553,20.87,4.036z"/>
		<path fill="#FFFFFF" d="M20.866,4.033c-1.351-0.859-2.675-1.196-3.972-2.052c-0.805-0.52-1.92-1.844-2.857-2.961
			c-0.18,1.794-0.7,2.546-1.348,3.042c-1.328,1.035-2.16,1.348-3.301,1.971c-0.96,0.519-6.181,3.611-6.181,10.308
			c0,2.139,0.575,4.098,1.56,5.774c2.102,3.576,6.074,5.861,10.333,5.861c6.257,0,11.688-4.545,11.688-11.426
			c0-3.777-1.535-6.421-3.058-8.125C22.479,5.029,21.24,4.268,20.866,4.033z"/>
	</g>
</g>
</svg>
